<svg id="Ebene_1" data-name="Ebene 1" xmlns="http://www.w3.org/2000/svg" viewBox="0 0 168.38 56.69"><defs><style>.cls-1{fill:#1d1d1b;}.cls-2{fill:#e30613;}</style></defs><rect class="cls-1" x="84.32" width="0.5" height="56.69"/><path class="cls-1" d="M180.69,37.19h-1.08v8.64h1.08Zm-4.35,7.21a2.28,2.28,0,0,1-1.38.67c-.54,0-1-.14-1-1.21s.64-1.26,1.63-1.27l.78,0Zm1.08,1.43V41.41c0-1.75-1-2.06-2.12-2.06a6.48,6.48,0,0,0-1.9.32v.91a7.88,7.88,0,0,1,1.74-.32c.73,0,1.2.08,1.2,1v.7h-1.05c-1.08,0-2.43.29-2.43,2s1.07,2,1.86,2a2,2,0,0,0,1.65-.87l.12.75Zm-6.37,0V41.24c0-1.46-.76-1.89-1.82-1.89a3.42,3.42,0,0,0-2,.9l-.24-.78h-.8v6.36h1.07V41a3.51,3.51,0,0,1,1.75-.63c.48,0,1,0,1,.87v4.64Zm-7.91-3.18c0,2.25-1,2.46-1.52,2.46s-1.53-.17-1.53-2.46.87-2.47,1.53-2.47,1.52.13,1.52,2.47m1.08,0c0-2.93-1.47-3.3-2.6-3.3s-2.61.44-2.61,3.3,1.47,3.3,2.61,3.3,2.6-.34,2.6-3.3m-7.08-3.18h-1.08v6.36h1.08Zm.17-1.68a.71.71,0,1,0-1.42,0,.71.71,0,1,0,1.42,0m-2.74,7.94v-.91a4.87,4.87,0,0,1-1.08.22c-.41,0-.6-.09-.6-.65V40.3h1.32l.12-.83h-1.44V37.55l-1,.48-.05,1.44h-1.08v.83h1.08v4.05c0,1.25.52,1.6,1.44,1.6a4.61,4.61,0,0,0,1.32-.22m-6.39-1.33a2.24,2.24,0,0,1-1.38.67c-.54,0-1-.14-1-1.21s.64-1.26,1.62-1.27l.78,0Zm1.08,1.43V41.41c0-1.75-1-2.06-2.11-2.06a6.59,6.59,0,0,0-1.91.32v.91a8,8,0,0,1,1.74-.32c.74,0,1.2.08,1.2,1v.7h-1c-1.08,0-2.44.29-2.44,2s1.08,2,1.86,2a2.05,2.05,0,0,0,1.66-.87l.12.75Zm-6.36,0V41.24c0-1.46-.76-1.89-1.82-1.89a3.38,3.38,0,0,0-2.05.9l-.24-.78H138v6.36h1.08V41a3.5,3.5,0,0,1,1.74-.63c.48,0,1,0,1,.87v4.64Zm-6.47-5.24V39.42a3,3,0,0,0-.53-.07,1.53,1.53,0,0,0-1.34,1l-.16-.84h-.83v6.36h1.08V41a1.41,1.41,0,0,1,1-.51,2.76,2.76,0,0,1,.78.12m-5.83,1.65h-2.53c.05-1.69.54-2.08,1.32-2.08s1.21.28,1.21,2.08m1.07.41c.1-2.81-1.16-3.3-2.28-3.3s-2.4.62-2.4,3.3c0,3,1.45,3.3,2.7,3.3a5.59,5.59,0,0,0,1.65-.3v-1a7.77,7.77,0,0,1-1.65.31c-.61,0-1.58,0-1.63-2h3.6Zm-5.83,3.08v-.91a4.73,4.73,0,0,1-1.08.22c-.41,0-.6-.09-.6-.65V40.3h1.32l.12-.83h-1.44V37.55l-1,.48,0,1.44H122v.83h1.08v4.05c0,1.25.53,1.6,1.44,1.6a4.61,4.61,0,0,0,1.32-.22m-5.32.1V41.24c0-1.46-.77-1.89-1.82-1.89a3.42,3.42,0,0,0-2.06.9l-.24-.78h-.8v6.36h1.08V41a3.45,3.45,0,0,1,1.74-.63c.48,0,1,0,1,.87v4.64Zm-7.16-8.4h-1.11v8.4h1.11Z" transform="translate(-12.31 -8.5)"/><path class="cls-2" d="M58.18,8.84c-6.33-1.37-12.69,1.52-16.66,6.76-4-5.24-10.33-8.13-16.66-6.76-7.62,1.65-12.55,8.49-12.55,17.43,0,19,26.76,37,27.9,37.76l1.31.88v-5.4c-5.24-3.78-24.47-19-24.47-33.24,0-8,4.53-12,8.81-12.8,5-1,10.06.64,15.54,8.74l.12.18.13-.18c5.47-8.1,10.5-9.7,15.53-8.74,3.53.67,7.22,3.48,8.41,8.92H70.4C69.18,15.4,64.66,10.25,58.18,8.84Z" transform="translate(-12.31 -8.5)"/><path class="cls-1" d="M40.8,28l-7,17.67h5.1l.86-2.93H42.9l-.16,2.93h4.95L46.61,28Zm2.68,1.94s-.21,5-.28,6.69l-.13,2.63H40.83l.75-2.65C42.21,34.31,43.48,29.89,43.48,29.89Z" transform="translate(-12.31 -8.5)"/><path class="cls-1" d="M65.55,28l-2,9.42c-.5,2.37-1.26,6.11-1.26,6.11s.33-3.71.38-6.11L62.84,28H57l-2.66,9.39c-.65,2.3-1.66,6.14-1.66,6.14s.45-3.87.73-6.11L54.64,28H49.87l-.59,17.67H55.5l2.82-10.25C58.91,33.3,59.64,30,59.64,30s-.23,3.29-.28,5.38l-.3,10.25h6.06L70.42,28Z" transform="translate(-12.31 -8.5)"/><path class="cls-1" d="M77.57,27.7a6.38,6.38,0,0,0-5.18,2c-1.82,2-3.08,6.21-3.08,10.9,0,4.35,2.8,5.26,5,5.26a6.61,6.61,0,0,0,5-1.8c1.74-1.76,3.26-5.88,3.26-11C82.62,28.83,79.86,27.7,77.57,27.7ZM76,42a1.22,1.22,0,0,1-1,.46c-.63,0-1-.51-1-1.85,0-2,1-7.5,1.81-8.78a1.31,1.31,0,0,1,1.17-.74c.8,0,1.08.76,1.08,2C78,34.92,76.88,41,76,42Z" transform="translate(-12.31 -8.5)"/></svg>